<svg width="24" height="24" viewBox="0 0 24 24" fill="none" xmlns="http://www.w3.org/2000/svg">
<path d="M22 13V9C22 4 20 2 15 2H9C4 2 2 4 2 9V15C2 20 4 22 9 22H13" stroke="#F0FFFD" stroke-width="1.5" stroke-linecap="round" stroke-linejoin="round"/>
<path d="M7.33008 14.4898L9.71008 11.3998C10.0501 10.9598 10.6801 10.8798 11.1201 11.2198L12.9501 12.6598C13.3901 12.9998 14.0201 12.9198 14.3601 12.4898L16.6701 9.50977" stroke="#F0FFFD" stroke-width="1.5" stroke-linecap="round" stroke-linejoin="round"/>
<path d="M19.4792 15.8195L19.7592 16.3894C19.8992 16.6694 20.2492 16.9295 20.5592 16.9895L20.9392 17.0494C22.0792 17.2394 22.3492 18.0794 21.5292 18.9094L21.1792 19.2594C20.9492 19.4994 20.8192 19.9594 20.8892 20.2794L20.9392 20.4895C21.2492 21.8695 20.5192 22.3994 19.3192 21.6794L19.0592 21.5294C18.7492 21.3494 18.2492 21.3494 17.9392 21.5294L17.6792 21.6794C16.4692 22.4094 15.7392 21.8695 16.0592 20.4895L16.1092 20.2794C16.1792 19.9594 16.0492 19.4994 15.8192 19.2594L15.4692 18.9094C14.6492 18.0794 14.9192 17.2394 16.0592 17.0494L16.4392 16.9895C16.7392 16.9395 17.0992 16.6694 17.2392 16.3894L17.5192 15.8195C18.0592 14.7295 18.9392 14.7295 19.4792 15.8195Z" stroke="#F0FFFD" stroke-width="1.5" stroke-linecap="round" stroke-linejoin="round"/>
</svg>
